<svg aria-hidden="true" style="position: absolute; width: 0; height: 0; overflow: hidden;" version="1.1" xmlns="http://www.w3.org/2000/svg" xmlns:xlink="http://www.w3.org/1999/xlink">
<defs>
<symbol id="icon-banner-1" viewBox="0 0 38 32">
<path d="M35.256 8.772v0l-4.668 10.353c-0.226 0.508-0.715 0.885-1.318 0.922v0l-13.402 0.885 0.772 2.221h14.607c1.713 0 3.106 1.393 3.106 3.106s-1.393 3.106-3.106 3.106c-1.713 0-3.106-1.393-3.106-3.106h-14.494c0 1.713-1.393 3.106-3.106 3.106s-3.106-1.393-3.106-3.106c0-1.713 1.393-3.106 3.106-3.106h2.805l-5.986-17.092h-3.558c-0.847 0-1.544-0.678-1.544-1.544s0.696-1.562 1.544-1.562h4.668c0.678 0 1.242 0.452 1.468 1.054v0l0.904 2.579h22.984c0.866 0 1.562 0.696 1.562 1.544 0 0.245-0.056 0.452-0.132 0.64zM11.934 9.694l2.861 8.207 13.346-0.904 3.294-7.304h-19.501z"></path>
</symbol>
<symbol id="icon-banner-2" viewBox="0 0 32 32">
<path d="M29.312 25.568c0.48 0.48 0.768 1.136 0.768 1.872 0 1.456-1.184 2.64-2.64 2.64-0.736 0-1.392-0.304-1.872-0.768v0l-7.728-7.744c-1.568 0.928-3.408 1.472-5.36 1.472-5.84 0-10.56-4.736-10.56-10.56 0-5.84 4.72-10.56 10.56-10.56s10.56 4.72 10.56 10.56c0 1.952-0.544 3.776-1.472 5.36l7.744 7.728zM12.48 4.56c-4.368 0-7.92 3.552-7.92 7.92s3.552 7.92 7.92 7.92c4.368 0 7.92-3.552 7.92-7.92s-3.552-7.92-7.92-7.92z"></path>
</symbol>
<symbol id="icon-banner-11" viewBox="0 0 38 32">
<path fill="#fff" style="fill: var(--color1, #fff)" d="M35.256 8.772v0l-4.668 10.353c-0.226 0.508-0.715 0.885-1.318 0.922v0l-13.402 0.885 0.772 2.221h14.607c1.713 0 3.106 1.393 3.106 3.106s-1.393 3.106-3.106 3.106c-1.713 0-3.106-1.393-3.106-3.106h-14.494c0 1.713-1.393 3.106-3.106 3.106s-3.106-1.393-3.106-3.106c0-1.713 1.393-3.106 3.106-3.106h2.805l-5.986-17.092h-3.558c-0.847 0-1.544-0.678-1.544-1.544s0.696-1.562 1.544-1.562h4.668c0.678 0 1.242 0.452 1.468 1.054v0l0.904 2.579h22.984c0.866 0 1.562 0.696 1.562 1.544 0 0.245-0.056 0.452-0.132 0.64zM11.934 9.694l2.861 8.207 13.346-0.904 3.294-7.304h-19.501z"></path>
</symbol>
<symbol id="icon-banner-21" viewBox="0 0 32 32">
<path fill="#fff" style="fill: var(--color1, #fff)" d="M29.312 25.568c0.48 0.48 0.768 1.136 0.768 1.872 0 1.456-1.184 2.64-2.64 2.64-0.736 0-1.392-0.304-1.872-0.768v0l-7.728-7.744c-1.568 0.928-3.408 1.472-5.36 1.472-5.84 0-10.56-4.736-10.56-10.56 0-5.84 4.72-10.56 10.56-10.56s10.56 4.72 10.56 10.56c0 1.952-0.544 3.776-1.472 5.36l7.744 7.728zM12.48 4.56c-4.368 0-7.92 3.552-7.92 7.92s3.552 7.92 7.92 7.92c4.368 0 7.92-3.552 7.92-7.92s-3.552-7.92-7.92-7.92z"></path>
</symbol>
</defs>
</svg>
